<?xml version="1.0" encoding="utf-8"?>
<!DOCTYPE svg PUBLIC "-//W3C//DTD SVG 1.1//EN" "http://www.w3.org/Graphics/SVG/1.1/DTD/svg11.dtd" [
	<!ENTITY ns_svg "http://www.w3.org/2000/svg">
	<!ENTITY ns_xlink "http://www.w3.org/1999/xlink">
]>
<svg xmlns="http://www.w3.org/2000/svg" xml:space="preserve" width="127.335" height="178.033" overflow="visible">
  <path fill="#222226" d="M6.038 51.898c.53 6.44 37.438 24.282 41.284 26.408 1.727.955 6.583 3.378 8.422 4.16L54.64 12.404s-.212-8.539-8.794-11.359c15.326-.49 45.698-5.924 49.61 13.886 1.392 7.048 1.5 14.792-3.076 20.846-5.353 7.081-15.601 8.262-23.864 8.271.013 10.575-.198 21.173-.19 31.69.001 1.567.065 4.636-.008 6.202 8.722-5.281 17.434-12.59 25.969-18.17 6.911-4.52 15.86-9.658 20.252-17.011 3.123 3.147 5.683 7.622 7.295 11.741.907 2.318 1.385 3.437 2.047 5.802-2.09-.255-3.477.326-5.493.797-3.232.756-8.179 4.1-11.164 5.493C101.891 73.081 74.792 92 74.792 92c13.381 6.326 25.693 12.837 39.873 19.616 3.705 1.771 6.095 3.325 12.67 2.126-3.779 7.341-6.058 13.309-11.164 19.759-.379-6.244-3.551-8.532-5.759-9.924-3.209-2.021-6.603-3.745-9.924-5.582-7.53-4.164-17.298-8.274-24.896-12.315-1.772-.943-5.498-2.7-7.274-3.637 0 0 .54 64.618.896 67.821.31 2.762 2.092 5.008 3.485 7.136-8.003 2.175-14.445.173-22.581.594 7.211-.374 5.802-17.53 5.879-22.03.158-9.219-.179-36.243-.008-45.462.01-.551-.275-4.682-.173-6.035-11.94 9.146-31.636 19.725-42.17 30.549-3.654 3.755-2.729 6.188-6.734.443-3.038-4.356-3.866-7.089-6.911-11.43 5.629-.105 9.193-3.306 13.822-6.291 4.603-2.968 9.563-5.859 14.087-8.949 6.069-4.145 17.133-10.698 23.138-14.937-12.789-6.178-26.683-13.055-39.517-19.137C8.537 72.897 3.869 70.681.19 72.189c1.177-6.634 2.655-12.386 5.848-20.291zm78.788-27.553c.695-6.73-1.821-10.877-8.182-12.393-4.465-1.063-8.671-.849-8.448 2.695.26 4.128-.276 9.981-.024 18.58 4.065.001 15.638.942 16.654-8.882zM49.524 72.524"/>
</svg>